<?xml version="1.0" encoding="utf-8"?>
<!-- Generator: Adobe Illustrator 16.0.0, SVG Export Plug-In . SVG Version: 6.00 Build 0)  -->
<!DOCTYPE svg PUBLIC "-//W3C//DTD SVG 1.1//EN" "http://www.w3.org/Graphics/SVG/1.1/DTD/svg11.dtd">
<svg version="1.1" id="Layer_1" xmlns="http://www.w3.org/2000/svg" xmlns:xlink="http://www.w3.org/1999/xlink" x="0px" y="0px"
	 width="83px" height="78px" viewBox="0 0 83 78" enable-background="new 0 0 83 78" xml:space="preserve">
<g>
	<path fill="#62E0D9" d="M74.78,0.59H1.29V0.58c-0.66,0-1.19,0.53-1.19,1.19v52.88c0,0.649,0.53,1.18,1.19,1.18h21.88v7.25h-3.94
		c-0.66,0-1.19,0.53-1.19,1.18v5.9c0,0.649,0.53,1.18,1.19,1.18H56.2v-2.76h1.83v-1H56.2v-4.5h-3.3v-7.25h3.3v-2.36H2.48V45.48H56.2
		v-2.36H2.48V2.95h71.11v20.94h2.37V1.77C75.96,1.12,75.43,0.59,74.78,0.59z M25.54,64.26v-8.43h24.99v8.43
		c0,0.65,0.529,1.181,1.18,1.181h3.95v3.529H20.41V65.44h3.94C25.01,65.44,25.54,64.91,25.54,64.26z M73.59,29.72v1h2.37v-1H73.59z"
		/>
	<path fill="#62E0D9" d="M36.412,47.92c-0.654,0-1.185,0.53-1.185,1.184c0,0.654,0.532,1.186,1.186,1.185
		c0.654-0.001,1.183-0.53,1.184-1.185C37.597,48.451,37.066,47.92,36.412,47.92L36.412,47.92z"/>
	<g transform="translate(55.377 23.07)">
		<path fill="none" stroke="#62E0D9" stroke-width="1.641" d="M26.443,3.28v3.37H0.823V3.28c0-1.36,1.1-2.46,2.46-2.46h20.7
			C25.343,0.82,26.443,1.92,26.443,3.28z"/>
		<rect x="0.823" y="7.65" fill="none" stroke="#62E0D9" stroke-width="1.641" width="25.62" height="36.86"/>
		<path fill="none" stroke="#62E0D9" stroke-width="1.641" d="M0.823,45.51v5.64c0,1.36,1.1,2.471,2.46,2.471h20.7
			c1.359,0,2.46-1.11,2.46-2.471v-5.64H0.823z M13.043,49.7c-0.66,0-1.189-0.529-1.189-1.18c0-0.649,0.529-1.18,1.189-1.18
			c0.65,0,1.18,0.53,1.18,1.18C14.223,49.17,13.693,49.7,13.043,49.7z"/>
		<path fill="none" stroke="#62E0D9" stroke-width="1.641" d="M14.223,48.52c0,0.65-0.529,1.18-1.18,1.18
			c-0.66,0-1.189-0.529-1.189-1.18c0-0.649,0.529-1.18,1.189-1.18C13.693,47.34,14.223,47.87,14.223,48.52z"/>
		<rect x="0.823" y="44.51" fill="none" stroke="#62E0D9" stroke-width="1.641" width="25.62" height="1"/>
		<rect x="0.823" y="6.65" fill="none" stroke="#62E0D9" stroke-width="1.641" width="25.62" height="1"/>
		<path fill="#FFFFFF" stroke="#62E0D9" stroke-width="1.458" d="M0.733,44.51v1h25.8v-1H0.733z M0.733,6.65v1h25.8v-1H0.733z"/>
		<path fill="none" stroke="#62E0D9" stroke-width="1.01" d="M14.223,48.52c0,0.65-0.529,1.18-1.18,1.18
			c-0.66,0-1.189-0.529-1.189-1.18c0-0.649,0.529-1.18,1.189-1.18C13.693,47.34,14.223,47.87,14.223,48.52z"/>
	</g>
	<g>
		<path fill="#62E0D9" d="M45.4,15.969h-0.197l-5.235,2.07l-5.927-2.07l-5.531,1.874c-0.198,0.098-0.395,0.197-0.395,0.493v14.89
			c0,0.297,0.197,0.494,0.494,0.494h0.197l5.235-2.071l5.927,2.07l5.531-1.873c0.198-0.099,0.396-0.296,0.396-0.493V16.462
			C45.895,16.166,45.697,15.969,45.4,15.969z M39.968,30.76l-5.927-1.997V17.448l5.927,1.997V30.76L39.968,30.76z"/>
		<path fill="#FFFFFF" d="M30.485,15.969c-1.32,0-2.37,0.917-2.37,2.07c0,1.54,2.37,3.847,2.37,3.847s2.371-2.308,2.371-3.846
			C32.856,16.886,31.806,15.969,30.485,15.969L30.485,15.969z M30.485,18.927c-0.51,0-0.911-0.361-0.911-0.821
			s0.4-0.822,0.911-0.822c0.511,0,0.912,0.361,0.912,0.822C31.397,18.566,30.996,18.927,30.485,18.927z"/>
	</g>
</g>
</svg>
